<mxfile host="app.diagrams.net" modified="2023-08-29T18:01:37.214Z" agent="Mozilla/5.0 (Windows NT 10.0; Win64; x64) AppleWebKit/537.36 (KHTML, like Gecko) Chrome/116.0.0.0 Safari/537.36" etag="xEydgwuHtc98U_XbvGN-" version="21.7.0" type="device">
  <diagram name="Pagina-1" id="RXsZhkkJ1BYQz_GdKjtC">
    <mxGraphModel dx="1855" dy="1731" grid="1" gridSize="10" guides="1" tooltips="1" connect="1" arrows="1" fold="1" page="1" pageScale="1" pageWidth="827" pageHeight="1169" math="0" shadow="0">
      <root>
        <mxCell id="0" />
        <mxCell id="1" parent="0" />
        <mxCell id="6yfdoHpJlU_6fIfk0Mqv-1" value="Utente non registrato" style="ellipse;whiteSpace=wrap;html=1;" parent="1" vertex="1">
          <mxGeometry x="190" y="80" width="120" height="80" as="geometry" />
        </mxCell>
        <mxCell id="N1cmyKIt58OU5iwGoLdd-60" style="edgeStyle=orthogonalEdgeStyle;rounded=0;orthogonalLoop=1;jettySize=auto;html=1;exitX=0.08;exitY=0.804;exitDx=0;exitDy=0;exitPerimeter=0;" edge="1" parent="1" source="6yfdoHpJlU_6fIfk0Mqv-9">
          <mxGeometry relative="1" as="geometry">
            <mxPoint x="230" y="270" as="targetPoint" />
            <Array as="points">
              <mxPoint x="570" y="144" />
              <mxPoint x="570" y="190" />
              <mxPoint x="230" y="190" />
            </Array>
          </mxGeometry>
        </mxCell>
        <mxCell id="N1cmyKIt58OU5iwGoLdd-66" style="edgeStyle=orthogonalEdgeStyle;rounded=0;orthogonalLoop=1;jettySize=auto;html=1;exitX=0.5;exitY=1;exitDx=0;exitDy=0;" edge="1" parent="1" source="6yfdoHpJlU_6fIfk0Mqv-2">
          <mxGeometry relative="1" as="geometry">
            <mxPoint x="450" y="190" as="targetPoint" />
          </mxGeometry>
        </mxCell>
        <mxCell id="6yfdoHpJlU_6fIfk0Mqv-2" value="Utente registrato" style="ellipse;whiteSpace=wrap;html=1;" parent="1" vertex="1">
          <mxGeometry x="400" y="80" width="120" height="90" as="geometry" />
        </mxCell>
        <mxCell id="6yfdoHpJlU_6fIfk0Mqv-8" style="edgeStyle=orthogonalEdgeStyle;rounded=0;orthogonalLoop=1;jettySize=auto;html=1;exitX=1;exitY=0.5;exitDx=0;exitDy=0;entryX=0;entryY=0.5;entryDx=0;entryDy=0;" parent="1" source="6yfdoHpJlU_6fIfk0Mqv-6" target="6yfdoHpJlU_6fIfk0Mqv-1" edge="1">
          <mxGeometry relative="1" as="geometry">
            <Array as="points">
              <mxPoint x="110" y="120" />
            </Array>
          </mxGeometry>
        </mxCell>
        <mxCell id="6yfdoHpJlU_6fIfk0Mqv-6" value="" style="ellipse;whiteSpace=wrap;html=1;fillColor=#000000;" parent="1" vertex="1">
          <mxGeometry x="20" y="90" width="80" height="60" as="geometry" />
        </mxCell>
        <mxCell id="6yfdoHpJlU_6fIfk0Mqv-9" value="" style="ellipse;whiteSpace=wrap;html=1;" parent="1" vertex="1">
          <mxGeometry x="580" y="80" width="120" height="80" as="geometry" />
        </mxCell>
        <mxCell id="6yfdoHpJlU_6fIfk0Mqv-11" value="Utente non autenticato" style="ellipse;whiteSpace=wrap;html=1;" parent="1" vertex="1">
          <mxGeometry x="585" y="90" width="110" height="60" as="geometry" />
        </mxCell>
        <mxCell id="6yfdoHpJlU_6fIfk0Mqv-12" value="Registrazione" style="text;html=1;align=center;verticalAlign=middle;resizable=0;points=[];autosize=1;strokeColor=none;fillColor=none;" parent="1" vertex="1">
          <mxGeometry x="310" y="60" width="100" height="30" as="geometry" />
        </mxCell>
        <mxCell id="6yfdoHpJlU_6fIfk0Mqv-25" style="edgeStyle=orthogonalEdgeStyle;rounded=0;orthogonalLoop=1;jettySize=auto;html=1;exitX=0;exitY=0.5;exitDx=0;exitDy=0;entryX=0.442;entryY=-0.037;entryDx=0;entryDy=0;entryPerimeter=0;" parent="1" target="6yfdoHpJlU_6fIfk0Mqv-21" edge="1">
          <mxGeometry relative="1" as="geometry">
            <mxPoint x="70" y="310" as="targetPoint" />
            <Array as="points">
              <mxPoint x="73" y="270" />
            </Array>
            <mxPoint x="440" y="270" as="sourcePoint" />
          </mxGeometry>
        </mxCell>
        <mxCell id="6yfdoHpJlU_6fIfk0Mqv-16" value="Admin autenticato" style="ellipse;whiteSpace=wrap;html=1;" parent="1" vertex="1">
          <mxGeometry x="670" y="230" width="120" height="80" as="geometry" />
        </mxCell>
        <mxCell id="6yfdoHpJlU_6fIfk0Mqv-19" value="Login" style="text;html=1;align=center;verticalAlign=middle;resizable=0;points=[];autosize=1;strokeColor=none;fillColor=none;" parent="1" vertex="1">
          <mxGeometry x="355" y="160" width="50" height="30" as="geometry" />
        </mxCell>
        <mxCell id="6yfdoHpJlU_6fIfk0Mqv-20" value="Login" style="text;html=1;align=center;verticalAlign=middle;resizable=0;points=[];autosize=1;strokeColor=none;fillColor=none;" parent="1" vertex="1">
          <mxGeometry x="750" y="140" width="50" height="30" as="geometry" />
        </mxCell>
        <mxCell id="N1cmyKIt58OU5iwGoLdd-61" style="edgeStyle=orthogonalEdgeStyle;rounded=0;orthogonalLoop=1;jettySize=auto;html=1;exitX=0;exitY=0.5;exitDx=0;exitDy=0;entryX=0.248;entryY=0.995;entryDx=0;entryDy=0;entryPerimeter=0;" edge="1" parent="1" source="6yfdoHpJlU_6fIfk0Mqv-21" target="6yfdoHpJlU_6fIfk0Mqv-9">
          <mxGeometry relative="1" as="geometry">
            <mxPoint x="620" y="420" as="targetPoint" />
            <Array as="points">
              <mxPoint y="360" />
              <mxPoint y="500" />
              <mxPoint x="610" y="500" />
            </Array>
          </mxGeometry>
        </mxCell>
        <mxCell id="6yfdoHpJlU_6fIfk0Mqv-21" value="Utente nuovo" style="ellipse;whiteSpace=wrap;html=1;" parent="1" vertex="1">
          <mxGeometry x="20" y="320" width="120" height="80" as="geometry" />
        </mxCell>
        <mxCell id="N1cmyKIt58OU5iwGoLdd-62" style="edgeStyle=orthogonalEdgeStyle;rounded=0;orthogonalLoop=1;jettySize=auto;html=1;exitX=0.5;exitY=1;exitDx=0;exitDy=0;" edge="1" parent="1" source="6yfdoHpJlU_6fIfk0Mqv-23">
          <mxGeometry relative="1" as="geometry">
            <mxPoint x="229.70588235294144" y="500" as="targetPoint" />
          </mxGeometry>
        </mxCell>
        <mxCell id="6yfdoHpJlU_6fIfk0Mqv-23" value="Utente saldo attivo" style="ellipse;whiteSpace=wrap;html=1;" parent="1" vertex="1">
          <mxGeometry x="170" y="320" width="120" height="80" as="geometry" />
        </mxCell>
        <mxCell id="N1cmyKIt58OU5iwGoLdd-65" style="edgeStyle=orthogonalEdgeStyle;rounded=0;orthogonalLoop=1;jettySize=auto;html=1;exitX=0.5;exitY=1;exitDx=0;exitDy=0;" edge="1" parent="1" source="6yfdoHpJlU_6fIfk0Mqv-24">
          <mxGeometry relative="1" as="geometry">
            <mxPoint x="440.294117647059" y="500" as="targetPoint" />
          </mxGeometry>
        </mxCell>
        <mxCell id="6yfdoHpJlU_6fIfk0Mqv-24" value="Utente saldo passivo" style="ellipse;whiteSpace=wrap;html=1;" parent="1" vertex="1">
          <mxGeometry x="380" y="320" width="120" height="80" as="geometry" />
        </mxCell>
        <mxCell id="6yfdoHpJlU_6fIfk0Mqv-26" value="" style="endArrow=classic;html=1;rounded=0;entryX=0.583;entryY=1;entryDx=0;entryDy=0;entryPerimeter=0;" parent="1" edge="1">
          <mxGeometry width="50" height="50" relative="1" as="geometry">
            <mxPoint x="229.54" y="270" as="sourcePoint" />
            <mxPoint x="229.50000000000003" y="320" as="targetPoint" />
          </mxGeometry>
        </mxCell>
        <mxCell id="6yfdoHpJlU_6fIfk0Mqv-27" value="" style="endArrow=classic;html=1;rounded=0;entryX=0.583;entryY=1;entryDx=0;entryDy=0;entryPerimeter=0;" parent="1" edge="1">
          <mxGeometry width="50" height="50" relative="1" as="geometry">
            <mxPoint x="439.45" y="270" as="sourcePoint" />
            <mxPoint x="439.41" y="320" as="targetPoint" />
          </mxGeometry>
        </mxCell>
        <mxCell id="6yfdoHpJlU_6fIfk0Mqv-36" value="" style="curved=1;endArrow=classic;html=1;rounded=0;exitX=0.008;exitY=0.35;exitDx=0;exitDy=0;exitPerimeter=0;" parent="1" source="6yfdoHpJlU_6fIfk0Mqv-16" edge="1">
          <mxGeometry width="50" height="50" relative="1" as="geometry">
            <mxPoint x="630" y="259" as="sourcePoint" />
            <mxPoint x="644" y="160" as="targetPoint" />
            <Array as="points">
              <mxPoint x="694" y="230" />
              <mxPoint x="710" y="210" />
              <mxPoint x="710" y="190" />
              <mxPoint x="644" y="180" />
            </Array>
          </mxGeometry>
        </mxCell>
        <mxCell id="6yfdoHpJlU_6fIfk0Mqv-38" value="" style="curved=1;endArrow=classic;html=1;rounded=0;" parent="1" target="6yfdoHpJlU_6fIfk0Mqv-24" edge="1">
          <mxGeometry width="50" height="50" relative="1" as="geometry">
            <mxPoint x="280" y="340" as="sourcePoint" />
            <mxPoint x="350" y="280" as="targetPoint" />
            <Array as="points">
              <mxPoint x="290" y="300" />
              <mxPoint x="340" y="280" />
            </Array>
          </mxGeometry>
        </mxCell>
        <mxCell id="N1cmyKIt58OU5iwGoLdd-1" value="" style="curved=1;endArrow=classic;html=1;rounded=0;exitX=0;exitY=1;exitDx=0;exitDy=0;entryX=1.017;entryY=0.613;entryDx=0;entryDy=0;entryPerimeter=0;" edge="1" parent="1" source="6yfdoHpJlU_6fIfk0Mqv-24" target="6yfdoHpJlU_6fIfk0Mqv-23">
          <mxGeometry width="50" height="50" relative="1" as="geometry">
            <mxPoint x="414" y="439" as="sourcePoint" />
            <mxPoint x="292" y="450" as="targetPoint" />
            <Array as="points">
              <mxPoint x="352" y="410" />
              <mxPoint x="302" y="410" />
            </Array>
          </mxGeometry>
        </mxCell>
        <mxCell id="N1cmyKIt58OU5iwGoLdd-3" value="" style="endArrow=classic;html=1;rounded=1;exitX=0.5;exitY=1;exitDx=0;exitDy=0;" edge="1" parent="1" source="6yfdoHpJlU_6fIfk0Mqv-24" target="6yfdoHpJlU_6fIfk0Mqv-24">
          <mxGeometry width="50" height="50" relative="1" as="geometry">
            <mxPoint x="460" y="450" as="sourcePoint" />
            <mxPoint x="510" y="400" as="targetPoint" />
            <Array as="points">
              <mxPoint x="460" y="430" />
              <mxPoint x="480" y="440" />
            </Array>
          </mxGeometry>
        </mxCell>
        <mxCell id="N1cmyKIt58OU5iwGoLdd-4" value="movimenti" style="text;html=1;align=center;verticalAlign=middle;resizable=0;points=[];autosize=1;strokeColor=none;fillColor=none;" vertex="1" parent="1">
          <mxGeometry x="440" y="438" width="80" height="30" as="geometry" />
        </mxCell>
        <mxCell id="N1cmyKIt58OU5iwGoLdd-5" value="" style="endArrow=classic;html=1;rounded=1;exitX=0.5;exitY=1;exitDx=0;exitDy=0;entryX=0.975;entryY=0.738;entryDx=0;entryDy=0;entryPerimeter=0;" edge="1" parent="1" target="6yfdoHpJlU_6fIfk0Mqv-24">
          <mxGeometry width="50" height="50" relative="1" as="geometry">
            <mxPoint x="480" y="392" as="sourcePoint" />
            <mxPoint x="499" y="390" as="targetPoint" />
            <Array as="points">
              <mxPoint x="490" y="422" />
              <mxPoint x="520" y="432" />
            </Array>
          </mxGeometry>
        </mxCell>
        <mxCell id="N1cmyKIt58OU5iwGoLdd-6" value="prestito" style="text;html=1;align=center;verticalAlign=middle;resizable=0;points=[];autosize=1;strokeColor=none;fillColor=none;" vertex="1" parent="1">
          <mxGeometry x="500" y="430" width="60" height="30" as="geometry" />
        </mxCell>
        <mxCell id="N1cmyKIt58OU5iwGoLdd-7" value="" style="endArrow=classic;html=1;rounded=1;exitX=1.008;exitY=0.663;exitDx=0;exitDy=0;exitPerimeter=0;" edge="1" parent="1" source="6yfdoHpJlU_6fIfk0Mqv-24">
          <mxGeometry width="50" height="50" relative="1" as="geometry">
            <mxPoint x="500" y="352" as="sourcePoint" />
            <mxPoint x="500" y="360" as="targetPoint" />
            <Array as="points">
              <mxPoint x="520" y="390" />
              <mxPoint x="550" y="370" />
            </Array>
          </mxGeometry>
        </mxCell>
        <mxCell id="N1cmyKIt58OU5iwGoLdd-8" value="chi siamo" style="text;html=1;align=center;verticalAlign=middle;resizable=0;points=[];autosize=1;strokeColor=none;fillColor=none;" vertex="1" parent="1">
          <mxGeometry x="520" y="390" width="70" height="30" as="geometry" />
        </mxCell>
        <mxCell id="N1cmyKIt58OU5iwGoLdd-10" value="" style="endArrow=classic;html=1;rounded=1;exitX=0.233;exitY=0.938;exitDx=0;exitDy=0;exitPerimeter=0;" edge="1" parent="1" source="6yfdoHpJlU_6fIfk0Mqv-24">
          <mxGeometry width="50" height="50" relative="1" as="geometry">
            <mxPoint x="400" y="402" as="sourcePoint" />
            <mxPoint x="419" y="400" as="targetPoint" />
            <Array as="points">
              <mxPoint x="410" y="432" />
              <mxPoint x="400" y="440" />
              <mxPoint x="430" y="430" />
            </Array>
          </mxGeometry>
        </mxCell>
        <mxCell id="N1cmyKIt58OU5iwGoLdd-11" value="info account" style="text;html=1;align=center;verticalAlign=middle;resizable=0;points=[];autosize=1;strokeColor=none;fillColor=none;" vertex="1" parent="1">
          <mxGeometry x="350" y="438" width="90" height="30" as="geometry" />
        </mxCell>
        <mxCell id="N1cmyKIt58OU5iwGoLdd-12" value="" style="endArrow=classic;html=1;rounded=1;exitX=0;exitY=1;exitDx=0;exitDy=0;" edge="1" parent="1" source="6yfdoHpJlU_6fIfk0Mqv-23">
          <mxGeometry width="50" height="50" relative="1" as="geometry">
            <mxPoint x="190" y="402" as="sourcePoint" />
            <mxPoint x="209" y="400" as="targetPoint" />
            <Array as="points">
              <mxPoint x="200" y="460" />
              <mxPoint x="230" y="442" />
            </Array>
          </mxGeometry>
        </mxCell>
        <mxCell id="N1cmyKIt58OU5iwGoLdd-13" value="movimenti" style="text;html=1;align=center;verticalAlign=middle;resizable=0;points=[];autosize=1;strokeColor=none;fillColor=none;" vertex="1" parent="1">
          <mxGeometry x="160" y="450" width="80" height="30" as="geometry" />
        </mxCell>
        <mxCell id="N1cmyKIt58OU5iwGoLdd-14" value="" style="endArrow=classic;html=1;rounded=1;exitX=0.5;exitY=1;exitDx=0;exitDy=0;entryX=0.975;entryY=0.738;entryDx=0;entryDy=0;entryPerimeter=0;" edge="1" parent="1" source="6yfdoHpJlU_6fIfk0Mqv-23">
          <mxGeometry width="50" height="50" relative="1" as="geometry">
            <mxPoint x="230" y="413" as="sourcePoint" />
            <mxPoint x="247" y="400" as="targetPoint" />
            <Array as="points">
              <mxPoint x="240" y="443" />
              <mxPoint x="270" y="453" />
              <mxPoint x="250" y="411" />
            </Array>
          </mxGeometry>
        </mxCell>
        <mxCell id="N1cmyKIt58OU5iwGoLdd-15" value="prestito" style="text;html=1;align=center;verticalAlign=middle;resizable=0;points=[];autosize=1;strokeColor=none;fillColor=none;" vertex="1" parent="1">
          <mxGeometry x="240" y="450" width="60" height="30" as="geometry" />
        </mxCell>
        <mxCell id="N1cmyKIt58OU5iwGoLdd-16" value="" style="endArrow=classic;html=1;rounded=1;exitX=1.008;exitY=0.663;exitDx=0;exitDy=0;exitPerimeter=0;" edge="1" parent="1">
          <mxGeometry width="50" height="50" relative="1" as="geometry">
            <mxPoint x="261" y="413" as="sourcePoint" />
            <mxPoint x="260" y="400" as="targetPoint" />
            <Array as="points">
              <mxPoint x="280" y="430" />
              <mxPoint x="310" y="410" />
            </Array>
          </mxGeometry>
        </mxCell>
        <mxCell id="N1cmyKIt58OU5iwGoLdd-17" value="chi siamo" style="text;html=1;align=center;verticalAlign=middle;resizable=0;points=[];autosize=1;strokeColor=none;fillColor=none;" vertex="1" parent="1">
          <mxGeometry x="280" y="420" width="70" height="30" as="geometry" />
        </mxCell>
        <mxCell id="N1cmyKIt58OU5iwGoLdd-18" value="" style="endArrow=classic;html=1;rounded=1;exitX=0;exitY=0.6;exitDx=0;exitDy=0;exitPerimeter=0;" edge="1" parent="1" source="6yfdoHpJlU_6fIfk0Mqv-23">
          <mxGeometry width="50" height="50" relative="1" as="geometry">
            <mxPoint x="168" y="380" as="sourcePoint" />
            <mxPoint x="179" y="385" as="targetPoint" />
            <Array as="points">
              <mxPoint x="170" y="417" />
              <mxPoint x="160" y="425" />
              <mxPoint x="190" y="415" />
            </Array>
          </mxGeometry>
        </mxCell>
        <mxCell id="N1cmyKIt58OU5iwGoLdd-20" value="&lt;span style=&quot;color: rgb(0, 0, 0); font-family: Helvetica; font-size: 12px; font-style: normal; font-variant-ligatures: normal; font-variant-caps: normal; font-weight: 400; letter-spacing: normal; orphans: 2; text-align: center; text-indent: 0px; text-transform: none; widows: 2; word-spacing: 0px; -webkit-text-stroke-width: 0px; background-color: rgb(251, 251, 251); text-decoration-thickness: initial; text-decoration-style: initial; text-decoration-color: initial; float: none; display: inline !important;&quot;&gt;info account&lt;/span&gt;" style="text;whiteSpace=wrap;html=1;" vertex="1" parent="1">
          <mxGeometry x="120" y="430" width="80" height="30" as="geometry" />
        </mxCell>
        <mxCell id="N1cmyKIt58OU5iwGoLdd-22" value="" style="endArrow=classic;html=1;rounded=1;entryX=0.258;entryY=0.038;entryDx=0;entryDy=0;entryPerimeter=0;" edge="1" parent="1" source="6yfdoHpJlU_6fIfk0Mqv-23" target="6yfdoHpJlU_6fIfk0Mqv-23">
          <mxGeometry width="50" height="50" relative="1" as="geometry">
            <mxPoint x="160" y="310" as="sourcePoint" />
            <mxPoint x="190" y="280" as="targetPoint" />
            <Array as="points">
              <mxPoint x="170" y="300" />
              <mxPoint x="210" y="300" />
            </Array>
          </mxGeometry>
        </mxCell>
        <mxCell id="N1cmyKIt58OU5iwGoLdd-23" value="bonifico" style="text;html=1;align=center;verticalAlign=middle;resizable=0;points=[];autosize=1;strokeColor=none;fillColor=none;" vertex="1" parent="1">
          <mxGeometry x="160" y="278" width="60" height="30" as="geometry" />
        </mxCell>
        <mxCell id="N1cmyKIt58OU5iwGoLdd-24" value="" style="endArrow=classic;html=1;rounded=1;entryX=0.258;entryY=0.038;entryDx=0;entryDy=0;entryPerimeter=0;exitX=0;exitY=0.5;exitDx=0;exitDy=0;" edge="1" parent="1" source="6yfdoHpJlU_6fIfk0Mqv-23">
          <mxGeometry width="50" height="50" relative="1" as="geometry">
            <mxPoint x="167" y="347" as="sourcePoint" />
            <mxPoint x="171" y="343" as="targetPoint" />
            <Array as="points">
              <mxPoint x="140" y="320" />
              <mxPoint x="180" y="320" />
            </Array>
          </mxGeometry>
        </mxCell>
        <mxCell id="N1cmyKIt58OU5iwGoLdd-25" value="ricarica tel." style="text;html=1;align=center;verticalAlign=middle;resizable=0;points=[];autosize=1;strokeColor=none;fillColor=none;" vertex="1" parent="1">
          <mxGeometry x="100" y="298" width="80" height="30" as="geometry" />
        </mxCell>
        <mxCell id="N1cmyKIt58OU5iwGoLdd-27" value="" style="endArrow=classic;html=1;rounded=1;exitX=1;exitY=0.25;exitDx=0;exitDy=0;exitPerimeter=0;entryX=0;entryY=0.375;entryDx=0;entryDy=0;entryPerimeter=0;" edge="1" parent="1" source="6yfdoHpJlU_6fIfk0Mqv-1" target="6yfdoHpJlU_6fIfk0Mqv-2">
          <mxGeometry width="50" height="50" relative="1" as="geometry">
            <mxPoint x="320" y="130" as="sourcePoint" />
            <mxPoint x="370" y="80" as="targetPoint" />
            <Array as="points">
              <mxPoint x="360" y="90" />
            </Array>
          </mxGeometry>
        </mxCell>
        <mxCell id="N1cmyKIt58OU5iwGoLdd-28" value="" style="endArrow=classic;html=1;rounded=1;" edge="1" parent="1">
          <mxGeometry width="50" height="50" relative="1" as="geometry">
            <mxPoint x="520" y="110" as="sourcePoint" />
            <mxPoint x="580" y="110" as="targetPoint" />
            <Array as="points">
              <mxPoint x="550" y="100" />
            </Array>
          </mxGeometry>
        </mxCell>
        <mxCell id="N1cmyKIt58OU5iwGoLdd-30" value="" style="endArrow=classic;html=1;rounded=1;exitX=0.992;exitY=0.7;exitDx=0;exitDy=0;exitPerimeter=0;entryX=0.5;entryY=0;entryDx=0;entryDy=0;" edge="1" parent="1" source="6yfdoHpJlU_6fIfk0Mqv-9" target="6yfdoHpJlU_6fIfk0Mqv-16">
          <mxGeometry width="50" height="50" relative="1" as="geometry">
            <mxPoint x="800" y="110" as="sourcePoint" />
            <mxPoint x="750" y="210" as="targetPoint" />
            <Array as="points">
              <mxPoint x="750" y="170" />
              <mxPoint x="770" y="190" />
            </Array>
          </mxGeometry>
        </mxCell>
        <mxCell id="N1cmyKIt58OU5iwGoLdd-33" value="" style="endArrow=classic;html=1;rounded=1;exitX=0.5;exitY=1;exitDx=0;exitDy=0;" edge="1" parent="1" source="6yfdoHpJlU_6fIfk0Mqv-21">
          <mxGeometry width="50" height="50" relative="1" as="geometry">
            <mxPoint x="101" y="413" as="sourcePoint" />
            <mxPoint x="100" y="400" as="targetPoint" />
            <Array as="points">
              <mxPoint x="70" y="470" />
              <mxPoint x="110" y="430" />
              <mxPoint x="120" y="420" />
            </Array>
          </mxGeometry>
        </mxCell>
        <mxCell id="N1cmyKIt58OU5iwGoLdd-34" value="chi siamo" style="text;html=1;align=center;verticalAlign=middle;resizable=0;points=[];autosize=1;strokeColor=none;fillColor=none;" vertex="1" parent="1">
          <mxGeometry x="60" y="468" width="70" height="30" as="geometry" />
        </mxCell>
        <mxCell id="N1cmyKIt58OU5iwGoLdd-36" value="" style="endArrow=classic;html=1;rounded=1;exitX=0.083;exitY=0.825;exitDx=0;exitDy=0;exitPerimeter=0;" edge="1" parent="1" source="6yfdoHpJlU_6fIfk0Mqv-21">
          <mxGeometry width="50" height="50" relative="1" as="geometry">
            <mxPoint x="30" y="400" as="sourcePoint" />
            <mxPoint x="50" y="400" as="targetPoint" />
            <Array as="points">
              <mxPoint x="20" y="470" />
              <mxPoint x="40" y="440" />
              <mxPoint x="60" y="430" />
              <mxPoint x="70" y="420" />
            </Array>
          </mxGeometry>
        </mxCell>
        <mxCell id="N1cmyKIt58OU5iwGoLdd-37" value="&lt;span style=&quot;color: rgb(0, 0, 0); font-family: Helvetica; font-size: 12px; font-style: normal; font-variant-ligatures: normal; font-variant-caps: normal; font-weight: 400; letter-spacing: normal; orphans: 2; text-align: center; text-indent: 0px; text-transform: none; widows: 2; word-spacing: 0px; -webkit-text-stroke-width: 0px; background-color: rgb(251, 251, 251); text-decoration-thickness: initial; text-decoration-style: initial; text-decoration-color: initial; float: none; display: inline !important;&quot;&gt;info account&lt;/span&gt;" style="text;whiteSpace=wrap;html=1;" vertex="1" parent="1">
          <mxGeometry y="468" width="80" height="30" as="geometry" />
        </mxCell>
        <mxCell id="N1cmyKIt58OU5iwGoLdd-38" value="logout" style="text;html=1;align=center;verticalAlign=middle;resizable=0;points=[];autosize=1;strokeColor=none;fillColor=none;rotation=270;strokeWidth=1;fontSize=14;" vertex="1" parent="1">
          <mxGeometry x="560" y="270" width="60" height="30" as="geometry" />
        </mxCell>
        <mxCell id="N1cmyKIt58OU5iwGoLdd-39" value="logout" style="text;html=1;align=center;verticalAlign=middle;resizable=0;points=[];autosize=1;strokeColor=none;fillColor=none;" vertex="1" parent="1">
          <mxGeometry x="680" y="160" width="60" height="30" as="geometry" />
        </mxCell>
        <mxCell id="N1cmyKIt58OU5iwGoLdd-40" value="" style="ellipse;whiteSpace=wrap;html=1;fillColor=#000000;" vertex="1" parent="1">
          <mxGeometry x="680" y="-10" width="80" height="60" as="geometry" />
        </mxCell>
        <mxCell id="N1cmyKIt58OU5iwGoLdd-41" style="edgeStyle=orthogonalEdgeStyle;rounded=0;orthogonalLoop=1;jettySize=auto;html=1;exitX=0;exitY=0.5;exitDx=0;exitDy=0;entryX=0.808;entryY=0.075;entryDx=0;entryDy=0;entryPerimeter=0;" edge="1" parent="1" source="N1cmyKIt58OU5iwGoLdd-40" target="6yfdoHpJlU_6fIfk0Mqv-9">
          <mxGeometry relative="1" as="geometry">
            <Array as="points">
              <mxPoint x="720" y="70" />
              <mxPoint x="677" y="70" />
            </Array>
            <mxPoint x="665" y="39.5" as="sourcePoint" />
            <mxPoint x="755" y="39.5" as="targetPoint" />
          </mxGeometry>
        </mxCell>
        <mxCell id="N1cmyKIt58OU5iwGoLdd-42" value="" style="endArrow=classic;html=1;rounded=1;exitX=1.008;exitY=0.663;exitDx=0;exitDy=0;exitPerimeter=0;" edge="1" parent="1">
          <mxGeometry width="50" height="50" relative="1" as="geometry">
            <mxPoint x="771" y="311" as="sourcePoint" />
            <mxPoint x="770" y="298" as="targetPoint" />
            <Array as="points">
              <mxPoint x="790" y="328" />
              <mxPoint x="820" y="308" />
            </Array>
          </mxGeometry>
        </mxCell>
        <mxCell id="N1cmyKIt58OU5iwGoLdd-43" value="" style="endArrow=classic;html=1;rounded=1;exitX=0.375;exitY=1.038;exitDx=0;exitDy=0;exitPerimeter=0;entryX=0.667;entryY=0.975;entryDx=0;entryDy=0;entryPerimeter=0;" edge="1" parent="1" source="6yfdoHpJlU_6fIfk0Mqv-16" target="6yfdoHpJlU_6fIfk0Mqv-16">
          <mxGeometry width="50" height="50" relative="1" as="geometry">
            <mxPoint x="751" y="323" as="sourcePoint" />
            <mxPoint x="770" y="313" as="targetPoint" />
            <Array as="points">
              <mxPoint x="740" y="340" />
              <mxPoint x="760" y="330" />
              <mxPoint x="760" y="320" />
            </Array>
          </mxGeometry>
        </mxCell>
        <mxCell id="N1cmyKIt58OU5iwGoLdd-44" value="lista clienti" style="text;html=1;align=center;verticalAlign=middle;resizable=0;points=[];autosize=1;strokeColor=none;fillColor=none;" vertex="1" parent="1">
          <mxGeometry x="695" y="345" width="80" height="30" as="geometry" />
        </mxCell>
        <mxCell id="N1cmyKIt58OU5iwGoLdd-45" value="crea c.c" style="text;html=1;align=center;verticalAlign=middle;resizable=0;points=[];autosize=1;strokeColor=none;fillColor=none;" vertex="1" parent="1">
          <mxGeometry x="775" y="328" width="70" height="30" as="geometry" />
        </mxCell>
        <mxCell id="N1cmyKIt58OU5iwGoLdd-48" value="" style="endArrow=classic;html=1;rounded=1;exitX=0.05;exitY=0.688;exitDx=0;exitDy=0;exitPerimeter=0;entryX=0;entryY=1;entryDx=0;entryDy=0;" edge="1" parent="1" source="6yfdoHpJlU_6fIfk0Mqv-16" target="6yfdoHpJlU_6fIfk0Mqv-16">
          <mxGeometry width="50" height="50" relative="1" as="geometry">
            <mxPoint x="661" y="323" as="sourcePoint" />
            <mxPoint x="660" y="310" as="targetPoint" />
            <Array as="points">
              <mxPoint x="680" y="340" />
              <mxPoint x="710" y="320" />
            </Array>
          </mxGeometry>
        </mxCell>
        <mxCell id="N1cmyKIt58OU5iwGoLdd-49" value="cancella &lt;br&gt;account &lt;br&gt;utente" style="text;html=1;align=center;verticalAlign=middle;resizable=0;points=[];autosize=1;strokeColor=none;fillColor=none;rotation=0;" vertex="1" parent="1">
          <mxGeometry x="640" y="345" width="70" height="60" as="geometry" />
        </mxCell>
        <mxCell id="N1cmyKIt58OU5iwGoLdd-50" value="" style="endArrow=classic;html=1;rounded=1;exitX=1;exitY=0.5;exitDx=0;exitDy=0;" edge="1" parent="1">
          <mxGeometry width="50" height="50" relative="1" as="geometry">
            <mxPoint x="790" y="285" as="sourcePoint" />
            <mxPoint x="790" y="268" as="targetPoint" />
            <Array as="points">
              <mxPoint x="810" y="298" />
              <mxPoint x="840" y="278" />
            </Array>
          </mxGeometry>
        </mxCell>
        <mxCell id="N1cmyKIt58OU5iwGoLdd-51" value="cancella c.c" style="text;html=1;align=center;verticalAlign=middle;resizable=0;points=[];autosize=1;strokeColor=none;fillColor=none;" vertex="1" parent="1">
          <mxGeometry x="820" y="278" width="90" height="30" as="geometry" />
        </mxCell>
        <mxCell id="N1cmyKIt58OU5iwGoLdd-52" value="" style="endArrow=classic;html=1;rounded=1;exitX=1.008;exitY=0.663;exitDx=0;exitDy=0;exitPerimeter=0;entryX=0.692;entryY=0.013;entryDx=0;entryDy=0;entryPerimeter=0;" edge="1" parent="1" target="6yfdoHpJlU_6fIfk0Mqv-16">
          <mxGeometry width="50" height="50" relative="1" as="geometry">
            <mxPoint x="778" y="243" as="sourcePoint" />
            <mxPoint x="777" y="230" as="targetPoint" />
            <Array as="points">
              <mxPoint x="790" y="240" />
              <mxPoint x="800" y="230" />
            </Array>
          </mxGeometry>
        </mxCell>
        <mxCell id="N1cmyKIt58OU5iwGoLdd-53" value="info account" style="text;html=1;align=center;verticalAlign=middle;resizable=0;points=[];autosize=1;strokeColor=none;fillColor=none;" vertex="1" parent="1">
          <mxGeometry x="745" y="198" width="90" height="30" as="geometry" />
        </mxCell>
        <mxCell id="N1cmyKIt58OU5iwGoLdd-54" value="Utente ripristina credenziali" style="ellipse;whiteSpace=wrap;html=1;" vertex="1" parent="1">
          <mxGeometry x="440" y="-45" width="120" height="80" as="geometry" />
        </mxCell>
        <mxCell id="N1cmyKIt58OU5iwGoLdd-55" value="" style="endArrow=classic;html=1;rounded=1;entryX=0.781;entryY=0.899;entryDx=0;entryDy=0;entryPerimeter=0;" edge="1" parent="1" source="6yfdoHpJlU_6fIfk0Mqv-9" target="N1cmyKIt58OU5iwGoLdd-54">
          <mxGeometry width="50" height="50" relative="1" as="geometry">
            <mxPoint x="540" y="45" as="sourcePoint" />
            <mxPoint x="600" y="45" as="targetPoint" />
            <Array as="points">
              <mxPoint x="590" y="40" />
            </Array>
          </mxGeometry>
        </mxCell>
        <mxCell id="N1cmyKIt58OU5iwGoLdd-56" value="ripristina password" style="text;html=1;align=center;verticalAlign=middle;resizable=0;points=[];autosize=1;strokeColor=none;fillColor=none;" vertex="1" parent="1">
          <mxGeometry x="560" y="-20" width="120" height="30" as="geometry" />
        </mxCell>
        <mxCell id="N1cmyKIt58OU5iwGoLdd-57" value="" style="endArrow=classic;html=1;rounded=1;entryX=0.781;entryY=0.899;entryDx=0;entryDy=0;entryPerimeter=0;exitX=0.5;exitY=1;exitDx=0;exitDy=0;" edge="1" parent="1" source="N1cmyKIt58OU5iwGoLdd-54">
          <mxGeometry width="50" height="50" relative="1" as="geometry">
            <mxPoint x="480" y="40" as="sourcePoint" />
            <mxPoint x="593" y="96" as="targetPoint" />
            <Array as="points">
              <mxPoint x="566" y="53" />
            </Array>
          </mxGeometry>
        </mxCell>
        <mxCell id="N1cmyKIt58OU5iwGoLdd-67" value="" style="endArrow=classic;html=1;rounded=1;exitX=0.277;exitY=-0.005;exitDx=0;exitDy=0;exitPerimeter=0;" edge="1" parent="1">
          <mxGeometry width="50" height="50" relative="1" as="geometry">
            <mxPoint x="433.2399999999998" y="84.54999999999995" as="sourcePoint" />
            <mxPoint x="730" y="150" as="targetPoint" />
            <Array as="points">
              <mxPoint x="433" y="-130" />
              <mxPoint x="780" y="-130" />
              <mxPoint x="840" />
            </Array>
          </mxGeometry>
        </mxCell>
        <mxCell id="N1cmyKIt58OU5iwGoLdd-68" value="" style="endArrow=classic;html=1;rounded=1;entryX=0.395;entryY=0.984;entryDx=0;entryDy=0;entryPerimeter=0;" edge="1" parent="1" target="N1cmyKIt58OU5iwGoLdd-54">
          <mxGeometry width="50" height="50" relative="1" as="geometry">
            <mxPoint x="455" y="80" as="sourcePoint" />
            <mxPoint x="480" y="40" as="targetPoint" />
            <Array as="points">
              <mxPoint x="460" y="50" />
            </Array>
          </mxGeometry>
        </mxCell>
      </root>
    </mxGraphModel>
  </diagram>
</mxfile>
